<?xml version="1.0" encoding="UTF-8" standalone="no"?>
<svg
   xmlns:dc="http://purl.org/dc/elements/1.1/"
   xmlns:cc="http://creativecommons.org/ns#"
   xmlns:rdf="http://www.w3.org/1999/02/22-rdf-syntax-ns#"
   xmlns:svg="http://www.w3.org/2000/svg"
   xmlns="http://www.w3.org/2000/svg"
   version="1.1"
   id="svg10"
   xml:space="preserve"
   width="532"
   height="498.66666"
   viewBox="0 0 532 498.66666"><metadata
     id="metadata16"><rdf:RDF><cc:Work
         rdf:about=""><dc:format>image/svg+xml</dc:format><dc:type
           rdf:resource="http://purl.org/dc/dcmitype/StillImage" /><dc:title></dc:title></cc:Work></rdf:RDF></metadata><defs
     id="defs14"><clipPath
       clipPathUnits="userSpaceOnUse"
       id="clipPath26"><path
         d="M 0,374 H 399 V 0 H 0 Z"
         id="path24" /></clipPath></defs><g
     id="g18"
     transform="matrix(1.3333333,0,0,-1.3333333,0,498.66667)"><g
       id="g20"><g
         id="g22"
         clip-path="url(#clipPath26)"><g
           id="g28"
           transform="translate(144.7539,245.8276)"><path
             d="m 0,0 c -1.046,0.698 -0.72,0.48 -1.767,1.179 2.504,5.015 5.04,10.014 7.505,15.048 6.573,13.423 7.205,26.731 -0.421,40.08 -4.258,7.455 -3.087,11.755 4.412,16.265 13.051,7.851 27.074,13.405 42,16.499 8.526,1.768 15.139,-1.109 19.582,-8.465 1.964,-3.252 3.722,-6.724 4.955,-10.309 5.691,-16.556 7.584,-33.817 7.379,-51.131 -0.302,-25.51 -4.884,-50.602 -9.528,-75.624 -1.5,-8.084 -3.129,-16.144 -4.787,-24.361 -0.846,-4.193 3.561,-7.485 7.343,-5.485 5.169,2.732 10.329,5.475 15.422,8.338 26.558,14.929 48.492,37.488 60.151,66.138 5.746,14.12 12.256,26.093 14.059,40.932 0.592,4.878 0.53,9.33 -1.781,14.571 -1.782,4.042 -4.569,7.557 -7.912,10.444 C 115.271,89.832 53.938,108.972 -8.472,79.042 -13.356,76.7 -18.002,72.84 -21.398,68.597 -34.73,51.938 -42.458,32.573 -47.481,11.957 c -5.191,-21.302 -2.817,-41.177 9.505,-59.687 2.421,-3.637 4.086,-4.075 7.825,-1.762 21.244,13.142 43.283,24.839 66.949,32.985 10.81,3.72 16.602,9.932 16.761,21.687 0.2,14.825 -0.936,29.298 -7.979,42.661 -3.55,6.735 -7.923,6.972 -11.77,0.496 C 28.971,40.19 25.387,31.22 19.966,23.518 14.072,15.143 6.73,7.786 0,0 m 54.921,105.185 c 86.842,-0.782 161.199,-68.052 161.236,-160.886 0.038,-93.046 -74.591,-161.02 -161.596,-160.861 -87.078,0.159 -161.471,67.901 -161.226,161.221 0.245,93.06 74.605,159.809 161.586,160.526"
             style="fill:#000000;fill-opacity:1;fill-rule:nonzero;stroke:none"
             id="path30" /></g></g></g></g></svg>
